<mxfile host="65bd71144e">
    <diagram id="I6u_ylEicrOa9JgdIdD1" name="usecase">
        <mxGraphModel dx="1089" dy="942" grid="1" gridSize="10" guides="1" tooltips="1" connect="1" arrows="1" fold="1" page="1" pageScale="1" pageWidth="850" pageHeight="1100" math="0" shadow="0">
            <root>
                <mxCell id="0"/>
                <mxCell id="1" parent="0"/>
                <mxCell id="72" value="" style="rounded=0;whiteSpace=wrap;html=1;" vertex="1" parent="1">
                    <mxGeometry y="70" width="750" height="1020" as="geometry"/>
                </mxCell>
                <mxCell id="70" value="" style="rounded=0;whiteSpace=wrap;html=1;" vertex="1" parent="1">
                    <mxGeometry x="250" y="390" width="120" height="60" as="geometry"/>
                </mxCell>
                <mxCell id="3" value="student&lt;br&gt;" style="shape=umlActor;verticalLabelPosition=bottom;verticalAlign=top;html=1;outlineConnect=0;" parent="1" vertex="1">
                    <mxGeometry x="60" y="290" width="30" height="60" as="geometry"/>
                </mxCell>
                <mxCell id="6" value="" style="rounded=0;whiteSpace=wrap;html=1;" parent="1" vertex="1">
                    <mxGeometry x="120" y="140" width="450" height="910" as="geometry"/>
                </mxCell>
                <mxCell id="14" value="Lecturer" style="shape=umlActor;verticalLabelPosition=bottom;verticalAlign=top;html=1;outlineConnect=0;" parent="1" vertex="1">
                    <mxGeometry x="640" y="310" width="30" height="60" as="geometry"/>
                </mxCell>
                <mxCell id="25" value="Administrator" style="shape=umlActor;verticalLabelPosition=bottom;verticalAlign=top;html=1;outlineConnect=0;" parent="1" vertex="1">
                    <mxGeometry x="50" y="630" width="30" height="60" as="geometry"/>
                </mxCell>
                <mxCell id="XYWCnq4DJ0gO84Lw5L7P-42" value="" style="rounded=0;whiteSpace=wrap;html=1;" parent="1" vertex="1">
                    <mxGeometry x="160" y="410" width="370" height="230" as="geometry"/>
                </mxCell>
                <mxCell id="XYWCnq4DJ0gO84Lw5L7P-43" value="Scan QR Code" style="ellipse;whiteSpace=wrap;html=1;" parent="1" vertex="1">
                    <mxGeometry x="268.75" y="460" width="131.88" height="60" as="geometry"/>
                </mxCell>
                <mxCell id="XYWCnq4DJ0gO84Lw5L7P-44" value="View Attendance Status" style="ellipse;whiteSpace=wrap;html=1;" parent="1" vertex="1">
                    <mxGeometry x="170" y="545" width="140" height="70" as="geometry"/>
                </mxCell>
                <mxCell id="XYWCnq4DJ0gO84Lw5L7P-46" value="Access to camera and location" style="ellipse;whiteSpace=wrap;html=1;" parent="1" vertex="1">
                    <mxGeometry x="355" y="555" width="147.5" height="60" as="geometry"/>
                </mxCell>
                <mxCell id="XYWCnq4DJ0gO84Lw5L7P-53" value="UC002: User Module" style="text;html=1;strokeColor=none;fillColor=none;align=center;verticalAlign=middle;whiteSpace=wrap;rounded=0;" parent="1" vertex="1">
                    <mxGeometry x="148.75" y="420" width="157.5" height="30" as="geometry"/>
                </mxCell>
                <mxCell id="XYWCnq4DJ0gO84Lw5L7P-54" value="" style="rounded=0;whiteSpace=wrap;html=1;" parent="1" vertex="1">
                    <mxGeometry x="138.75" y="660" width="391.25" height="210" as="geometry"/>
                </mxCell>
                <mxCell id="XYWCnq4DJ0gO84Lw5L7P-55" value="Generate QR Code" style="ellipse;whiteSpace=wrap;html=1;" parent="1" vertex="1">
                    <mxGeometry x="167.5" y="700" width="120" height="50" as="geometry"/>
                </mxCell>
                <mxCell id="XYWCnq4DJ0gO84Lw5L7P-56" value="Manage Date, Time and Class Location" style="ellipse;whiteSpace=wrap;html=1;" parent="1" vertex="1">
                    <mxGeometry x="163.75" y="790" width="127.5" height="70" as="geometry"/>
                </mxCell>
                <mxCell id="XYWCnq4DJ0gO84Lw5L7P-57" value="View Student Attendance Record" style="ellipse;whiteSpace=wrap;html=1;" parent="1" vertex="1">
                    <mxGeometry x="368" y="700" width="115" height="70" as="geometry"/>
                </mxCell>
                <mxCell id="XYWCnq4DJ0gO84Lw5L7P-61" value="UC003: Attendance" style="text;html=1;strokeColor=none;fillColor=none;align=center;verticalAlign=middle;whiteSpace=wrap;rounded=0;" parent="1" vertex="1">
                    <mxGeometry x="148.75" y="670" width="120" height="30" as="geometry"/>
                </mxCell>
                <mxCell id="XYWCnq4DJ0gO84Lw5L7P-64" value="Student Attendance System" style="text;html=1;strokeColor=none;fillColor=none;align=center;verticalAlign=middle;whiteSpace=wrap;rounded=0;" parent="1" vertex="1">
                    <mxGeometry x="260" y="150" width="200" height="30" as="geometry"/>
                </mxCell>
                <mxCell id="XYWCnq4DJ0gO84Lw5L7P-65" value="" style="rounded=0;whiteSpace=wrap;html=1;" parent="1" vertex="1">
                    <mxGeometry x="138.75" y="900" width="410" height="130" as="geometry"/>
                </mxCell>
                <mxCell id="XYWCnq4DJ0gO84Lw5L7P-66" value="Control System Security" style="ellipse;whiteSpace=wrap;html=1;" parent="1" vertex="1">
                    <mxGeometry x="358.75" y="960" width="140" height="50" as="geometry"/>
                </mxCell>
                <mxCell id="XYWCnq4DJ0gO84Lw5L7P-67" value="Manage The System" style="ellipse;whiteSpace=wrap;html=1;" parent="1" vertex="1">
                    <mxGeometry x="160" y="950" width="148.75" height="60" as="geometry"/>
                </mxCell>
                <mxCell id="XYWCnq4DJ0gO84Lw5L7P-68" value="UC004: Security system" style="text;html=1;strokeColor=none;fillColor=none;align=center;verticalAlign=middle;whiteSpace=wrap;rounded=0;" parent="1" vertex="1">
                    <mxGeometry x="148.75" y="910" width="157.5" height="30" as="geometry"/>
                </mxCell>
                <mxCell id="Y3VHPMeUVkQ1NJbOH7VH-25" value="Random Generated Code" style="ellipse;whiteSpace=wrap;html=1;" parent="1" vertex="1">
                    <mxGeometry x="368" y="790" width="131.87" height="70" as="geometry"/>
                </mxCell>
                <mxCell id="27" value="" style="rounded=0;whiteSpace=wrap;html=1;" parent="1" vertex="1">
                    <mxGeometry x="158.75" y="210" width="370" height="150" as="geometry"/>
                </mxCell>
                <mxCell id="28" value="UC001: Sign in" style="text;html=1;strokeColor=none;fillColor=none;align=center;verticalAlign=middle;whiteSpace=wrap;rounded=0;" parent="1" vertex="1">
                    <mxGeometry x="158.13" y="220" width="163.75" height="30" as="geometry"/>
                </mxCell>
                <mxCell id="32" value="Sign in" style="ellipse;whiteSpace=wrap;html=1;" parent="1" vertex="1">
                    <mxGeometry x="205" y="270" width="103.75" height="55" as="geometry"/>
                </mxCell>
                <mxCell id="33" value="Reset password&amp;nbsp;" style="ellipse;whiteSpace=wrap;html=1;" parent="1" vertex="1">
                    <mxGeometry x="400.63" y="270" width="110" height="60" as="geometry"/>
                </mxCell>
                <mxCell id="50" value="" style="endArrow=classic;html=1;exitX=0.5;exitY=0.5;exitDx=0;exitDy=0;exitPerimeter=0;entryX=0;entryY=0.5;entryDx=0;entryDy=0;" parent="1" source="25" target="32" edge="1">
                    <mxGeometry width="50" height="50" relative="1" as="geometry">
                        <mxPoint x="260" y="520" as="sourcePoint"/>
                        <mxPoint x="310" y="470" as="targetPoint"/>
                        <Array as="points">
                            <mxPoint x="110" y="480"/>
                        </Array>
                    </mxGeometry>
                </mxCell>
                <mxCell id="51" value="" style="endArrow=classic;html=1;exitX=0.5;exitY=0.5;exitDx=0;exitDy=0;exitPerimeter=0;entryX=1;entryY=1;entryDx=0;entryDy=0;" parent="1" source="14" target="32" edge="1">
                    <mxGeometry width="50" height="50" relative="1" as="geometry">
                        <mxPoint x="440" y="420" as="sourcePoint"/>
                        <mxPoint x="490" y="370" as="targetPoint"/>
                        <Array as="points">
                            <mxPoint x="450" y="340"/>
                        </Array>
                    </mxGeometry>
                </mxCell>
                <mxCell id="52" value="" style="endArrow=none;dashed=1;html=1;exitX=1;exitY=0.5;exitDx=0;exitDy=0;entryX=0;entryY=0.5;entryDx=0;entryDy=0;" parent="1" source="32" target="33" edge="1">
                    <mxGeometry width="50" height="50" relative="1" as="geometry">
                        <mxPoint x="350" y="420" as="sourcePoint"/>
                        <mxPoint x="400" y="370" as="targetPoint"/>
                    </mxGeometry>
                </mxCell>
                <mxCell id="54" value="&amp;lt;&amp;lt;include&amp;gt;&amp;gt;" style="text;html=1;strokeColor=none;fillColor=none;align=center;verticalAlign=middle;whiteSpace=wrap;rounded=0;" parent="1" vertex="1">
                    <mxGeometry x="321.88" y="270" width="60" height="30" as="geometry"/>
                </mxCell>
                <mxCell id="55" value="" style="endArrow=classic;html=1;exitX=0.5;exitY=0.5;exitDx=0;exitDy=0;exitPerimeter=0;" parent="1" source="3" target="XYWCnq4DJ0gO84Lw5L7P-43" edge="1">
                    <mxGeometry width="50" height="50" relative="1" as="geometry">
                        <mxPoint x="240" y="420" as="sourcePoint"/>
                        <mxPoint x="290" y="370" as="targetPoint"/>
                        <Array as="points">
                            <mxPoint x="150" y="450"/>
                        </Array>
                    </mxGeometry>
                </mxCell>
                <mxCell id="57" value="" style="endArrow=none;dashed=1;html=1;entryX=0.798;entryY=0.9;entryDx=0;entryDy=0;entryPerimeter=0;" parent="1" source="XYWCnq4DJ0gO84Lw5L7P-46" target="XYWCnq4DJ0gO84Lw5L7P-43" edge="1">
                    <mxGeometry width="50" height="50" relative="1" as="geometry">
                        <mxPoint x="280" y="620" as="sourcePoint"/>
                        <mxPoint x="330" y="570" as="targetPoint"/>
                    </mxGeometry>
                </mxCell>
                <mxCell id="58" value="&amp;lt;&amp;lt;include&amp;gt;&amp;gt;" style="text;html=1;strokeColor=none;fillColor=none;align=center;verticalAlign=middle;whiteSpace=wrap;rounded=0;" parent="1" vertex="1">
                    <mxGeometry x="395" y="515" width="60" height="30" as="geometry"/>
                </mxCell>
                <mxCell id="59" value="" style="endArrow=classic;html=1;exitX=0.5;exitY=0.5;exitDx=0;exitDy=0;exitPerimeter=0;" parent="1" source="3" target="XYWCnq4DJ0gO84Lw5L7P-44" edge="1">
                    <mxGeometry width="50" height="50" relative="1" as="geometry">
                        <mxPoint x="280" y="520" as="sourcePoint"/>
                        <mxPoint x="330" y="470" as="targetPoint"/>
                        <Array as="points">
                            <mxPoint x="70" y="470"/>
                        </Array>
                    </mxGeometry>
                </mxCell>
                <mxCell id="60" value="" style="endArrow=classic;html=1;exitX=0.5;exitY=0.5;exitDx=0;exitDy=0;exitPerimeter=0;entryX=1;entryY=0;entryDx=0;entryDy=0;" parent="1" source="14" target="XYWCnq4DJ0gO84Lw5L7P-55" edge="1">
                    <mxGeometry width="50" height="50" relative="1" as="geometry">
                        <mxPoint x="390" y="520" as="sourcePoint"/>
                        <mxPoint x="440" y="470" as="targetPoint"/>
                        <Array as="points">
                            <mxPoint x="560" y="600"/>
                        </Array>
                    </mxGeometry>
                </mxCell>
                <mxCell id="61" value="" style="endArrow=classic;html=1;exitX=0.5;exitY=0.5;exitDx=0;exitDy=0;exitPerimeter=0;" parent="1" source="14" target="XYWCnq4DJ0gO84Lw5L7P-57" edge="1">
                    <mxGeometry width="50" height="50" relative="1" as="geometry">
                        <mxPoint x="630" y="428.66668701171875" as="sourcePoint"/>
                        <mxPoint x="440" y="570" as="targetPoint"/>
                        <Array as="points">
                            <mxPoint x="610" y="610"/>
                        </Array>
                    </mxGeometry>
                </mxCell>
                <mxCell id="63" value="" style="endArrow=classic;html=1;exitX=0.5;exitY=0.5;exitDx=0;exitDy=0;exitPerimeter=0;entryX=1;entryY=0.5;entryDx=0;entryDy=0;" parent="1" source="14" target="Y3VHPMeUVkQ1NJbOH7VH-25" edge="1">
                    <mxGeometry width="50" height="50" relative="1" as="geometry">
                        <mxPoint x="390" y="410" as="sourcePoint"/>
                        <mxPoint x="610" y="682" as="targetPoint"/>
                        <Array as="points">
                            <mxPoint x="640" y="600"/>
                        </Array>
                    </mxGeometry>
                </mxCell>
                <mxCell id="64" value="" style="endArrow=none;dashed=1;html=1;exitX=0.5;exitY=1;exitDx=0;exitDy=0;" parent="1" source="XYWCnq4DJ0gO84Lw5L7P-55" target="XYWCnq4DJ0gO84Lw5L7P-56" edge="1">
                    <mxGeometry width="50" height="50" relative="1" as="geometry">
                        <mxPoint x="340" y="810" as="sourcePoint"/>
                        <mxPoint x="390" y="760" as="targetPoint"/>
                    </mxGeometry>
                </mxCell>
                <mxCell id="65" value="&amp;lt;&amp;lt;include&amp;gt;&amp;gt;" style="text;html=1;strokeColor=none;fillColor=none;align=center;verticalAlign=middle;whiteSpace=wrap;rounded=0;" parent="1" vertex="1">
                    <mxGeometry x="232.03" y="760" width="60" height="30" as="geometry"/>
                </mxCell>
                <mxCell id="66" value="" style="endArrow=classic;html=1;exitX=0.5;exitY=0.5;exitDx=0;exitDy=0;exitPerimeter=0;" parent="1" source="25" target="XYWCnq4DJ0gO84Lw5L7P-67" edge="1">
                    <mxGeometry width="50" height="50" relative="1" as="geometry">
                        <mxPoint x="160" y="810" as="sourcePoint"/>
                        <mxPoint x="210" y="760" as="targetPoint"/>
                        <Array as="points">
                            <mxPoint x="90" y="900"/>
                        </Array>
                    </mxGeometry>
                </mxCell>
                <mxCell id="68" value="" style="endArrow=classic;html=1;exitX=0.5;exitY=0.5;exitDx=0;exitDy=0;exitPerimeter=0;" parent="1" source="25" target="XYWCnq4DJ0gO84Lw5L7P-66" edge="1">
                    <mxGeometry width="50" height="50" relative="1" as="geometry">
                        <mxPoint x="160" y="810" as="sourcePoint"/>
                        <mxPoint x="210" y="760" as="targetPoint"/>
                        <Array as="points">
                            <mxPoint x="110" y="880"/>
                            <mxPoint x="320" y="890"/>
                        </Array>
                    </mxGeometry>
                </mxCell>
                <mxCell id="69" value="" style="endArrow=classic;html=1;exitX=0.5;exitY=0.5;exitDx=0;exitDy=0;exitPerimeter=0;" parent="1" source="25" target="XYWCnq4DJ0gO84Lw5L7P-57" edge="1">
                    <mxGeometry width="50" height="50" relative="1" as="geometry">
                        <mxPoint x="250" y="710" as="sourcePoint"/>
                        <mxPoint x="300" y="660" as="targetPoint"/>
                        <Array as="points">
                            <mxPoint x="320" y="650"/>
                        </Array>
                    </mxGeometry>
                </mxCell>
            </root>
        </mxGraphModel>
    </diagram>
    <diagram id="xiHPo--04WoYaqVdLC43" name="activity">
        <mxGraphModel dx="490" dy="424" grid="1" gridSize="10" guides="1" tooltips="1" connect="1" arrows="1" fold="1" page="1" pageScale="1" pageWidth="850" pageHeight="1100" math="0" shadow="0">
            <root>
                <mxCell id="0"/>
                <mxCell id="1" parent="0"/>
                <mxCell id="5aAx5zSFEC0gb9VVzUQT-2" value="" style="swimlane;startSize=0;" parent="1" vertex="1">
                    <mxGeometry x="70" y="25" width="530" height="1200" as="geometry"/>
                </mxCell>
                <mxCell id="5aAx5zSFEC0gb9VVzUQT-19" style="edgeStyle=none;html=1;fontSize=12;" parent="5aAx5zSFEC0gb9VVzUQT-2" source="5aAx5zSFEC0gb9VVzUQT-7" target="5aAx5zSFEC0gb9VVzUQT-13" edge="1">
                    <mxGeometry relative="1" as="geometry"/>
                </mxCell>
                <mxCell id="5aAx5zSFEC0gb9VVzUQT-7" value="&lt;font style=&quot;font-size: 18px;&quot;&gt;Student&lt;/font&gt;" style="text;html=1;strokeColor=none;fillColor=none;align=center;verticalAlign=middle;whiteSpace=wrap;rounded=0;" parent="5aAx5zSFEC0gb9VVzUQT-2" vertex="1">
                    <mxGeometry x="30" y="10" width="90" height="30" as="geometry"/>
                </mxCell>
                <mxCell id="5aAx5zSFEC0gb9VVzUQT-10" value="" style="line;strokeWidth=2;direction=south;html=1;fontSize=18;" parent="5aAx5zSFEC0gb9VVzUQT-2" vertex="1">
                    <mxGeometry x="160" width="10" height="1200" as="geometry"/>
                </mxCell>
                <mxCell id="5aAx5zSFEC0gb9VVzUQT-13" value="&lt;font style=&quot;font-size: 12px;&quot;&gt;Log in to to the system&lt;/font&gt;" style="ellipse;whiteSpace=wrap;html=1;fontSize=18;" parent="5aAx5zSFEC0gb9VVzUQT-2" vertex="1">
                    <mxGeometry x="15" y="80" width="135" height="70" as="geometry"/>
                </mxCell>
                <mxCell id="5aAx5zSFEC0gb9VVzUQT-17" value="" style="shape=waypoint;sketch=0;fillStyle=solid;size=6;pointerEvents=1;points=[];fillColor=none;resizable=0;rotatable=0;perimeter=centerPerimeter;snapToPoint=1;fontSize=12;" parent="5aAx5zSFEC0gb9VVzUQT-2" vertex="1">
                    <mxGeometry x="65" y="30" width="20" height="20" as="geometry"/>
                </mxCell>
                <mxCell id="5aAx5zSFEC0gb9VVzUQT-20" value="Access to camera and location&amp;nbsp;" style="ellipse;whiteSpace=wrap;html=1;fontSize=12;" parent="5aAx5zSFEC0gb9VVzUQT-2" vertex="1">
                    <mxGeometry x="12.5" y="190" width="140" height="60" as="geometry"/>
                </mxCell>
                <mxCell id="5aAx5zSFEC0gb9VVzUQT-21" value="" style="endArrow=classic;html=1;fontSize=12;exitX=0.5;exitY=1;exitDx=0;exitDy=0;entryX=0.5;entryY=0;entryDx=0;entryDy=0;" parent="5aAx5zSFEC0gb9VVzUQT-2" source="5aAx5zSFEC0gb9VVzUQT-13" target="5aAx5zSFEC0gb9VVzUQT-20" edge="1">
                    <mxGeometry width="50" height="50" relative="1" as="geometry">
                        <mxPoint x="180" y="250" as="sourcePoint"/>
                        <mxPoint x="230" y="200" as="targetPoint"/>
                    </mxGeometry>
                </mxCell>
                <mxCell id="5aAx5zSFEC0gb9VVzUQT-22" value="Lecturer" style="text;strokeColor=none;fillColor=none;html=1;fontSize=18;fontStyle=1;verticalAlign=middle;align=center;" parent="5aAx5zSFEC0gb9VVzUQT-2" vertex="1">
                    <mxGeometry x="180" y="5" width="100" height="40" as="geometry"/>
                </mxCell>
                <mxCell id="5aAx5zSFEC0gb9VVzUQT-27" value="Generate QR code" style="ellipse;whiteSpace=wrap;html=1;fontSize=12;" parent="5aAx5zSFEC0gb9VVzUQT-2" vertex="1">
                    <mxGeometry x="200" y="270" width="130" height="60" as="geometry"/>
                </mxCell>
                <mxCell id="5aAx5zSFEC0gb9VVzUQT-29" value="Scan QR code" style="ellipse;whiteSpace=wrap;html=1;fontSize=12;" parent="5aAx5zSFEC0gb9VVzUQT-2" vertex="1">
                    <mxGeometry x="12.5" y="300" width="137.5" height="60" as="geometry"/>
                </mxCell>
                <mxCell id="5aAx5zSFEC0gb9VVzUQT-31" value="" style="line;strokeWidth=2;html=1;fontSize=12;" parent="5aAx5zSFEC0gb9VVzUQT-2" vertex="1">
                    <mxGeometry x="-5" y="50" width="535" height="10" as="geometry"/>
                </mxCell>
                <mxCell id="5aAx5zSFEC0gb9VVzUQT-39" value="" style="edgeStyle=segmentEdgeStyle;endArrow=classic;html=1;curved=0;rounded=0;endSize=8;startSize=8;fontSize=12;exitX=1;exitY=0.5;exitDx=0;exitDy=0;entryX=0.421;entryY=0.992;entryDx=0;entryDy=0;entryPerimeter=0;" parent="5aAx5zSFEC0gb9VVzUQT-2" source="5aAx5zSFEC0gb9VVzUQT-20" target="5aAx5zSFEC0gb9VVzUQT-69" edge="1">
                    <mxGeometry width="50" height="50" relative="1" as="geometry">
                        <mxPoint x="190" y="230" as="sourcePoint"/>
                        <mxPoint x="240" y="180" as="targetPoint"/>
                    </mxGeometry>
                </mxCell>
                <mxCell id="5aAx5zSFEC0gb9VVzUQT-44" value="" style="edgeStyle=segmentEdgeStyle;endArrow=classic;html=1;curved=0;rounded=0;endSize=8;startSize=8;fontSize=12;entryX=1.005;entryY=0.644;entryDx=0;entryDy=0;entryPerimeter=0;exitX=0.451;exitY=1.011;exitDx=0;exitDy=0;exitPerimeter=0;" parent="5aAx5zSFEC0gb9VVzUQT-2" source="5aAx5zSFEC0gb9VVzUQT-27" target="5aAx5zSFEC0gb9VVzUQT-29" edge="1">
                    <mxGeometry width="50" height="50" relative="1" as="geometry">
                        <mxPoint x="200" y="320" as="sourcePoint"/>
                        <mxPoint x="250" y="270" as="targetPoint"/>
                    </mxGeometry>
                </mxCell>
                <mxCell id="5aAx5zSFEC0gb9VVzUQT-45" value="" style="line;strokeWidth=2;direction=south;html=1;fontSize=12;" parent="5aAx5zSFEC0gb9VVzUQT-2" vertex="1">
                    <mxGeometry x="350" width="10" height="1200" as="geometry"/>
                </mxCell>
                <mxCell id="5aAx5zSFEC0gb9VVzUQT-46" value="Administrator" style="text;strokeColor=none;fillColor=none;html=1;fontSize=18;fontStyle=1;verticalAlign=middle;align=center;" parent="5aAx5zSFEC0gb9VVzUQT-2" vertex="1">
                    <mxGeometry x="390" y="5" width="100" height="40" as="geometry"/>
                </mxCell>
                <mxCell id="5aAx5zSFEC0gb9VVzUQT-48" value="Scan failed or success?" style="shape=hexagon;perimeter=hexagonPerimeter2;whiteSpace=wrap;html=1;fixedSize=1;fontSize=12;" parent="5aAx5zSFEC0gb9VVzUQT-2" vertex="1">
                    <mxGeometry x="190" y="380" width="140" height="30" as="geometry"/>
                </mxCell>
                <mxCell id="5aAx5zSFEC0gb9VVzUQT-49" value="" style="endArrow=classic;html=1;fontSize=12;exitX=0.5;exitY=1;exitDx=0;exitDy=0;entryX=0.625;entryY=0;entryDx=0;entryDy=0;" parent="5aAx5zSFEC0gb9VVzUQT-2" source="5aAx5zSFEC0gb9VVzUQT-29" target="5aAx5zSFEC0gb9VVzUQT-48" edge="1">
                    <mxGeometry width="50" height="50" relative="1" as="geometry">
                        <mxPoint x="200" y="390" as="sourcePoint"/>
                        <mxPoint x="250" y="340" as="targetPoint"/>
                        <Array as="points">
                            <mxPoint x="270" y="360"/>
                        </Array>
                    </mxGeometry>
                </mxCell>
                <mxCell id="5aAx5zSFEC0gb9VVzUQT-51" value="Generated random generate code" style="ellipse;whiteSpace=wrap;html=1;fontSize=12;" parent="5aAx5zSFEC0gb9VVzUQT-2" vertex="1">
                    <mxGeometry x="200" y="455" width="150" height="50" as="geometry"/>
                </mxCell>
                <mxCell id="5aAx5zSFEC0gb9VVzUQT-53" value="" style="endArrow=classic;html=1;fontSize=12;exitX=1;exitY=0.5;exitDx=0;exitDy=0;" parent="5aAx5zSFEC0gb9VVzUQT-2" source="5aAx5zSFEC0gb9VVzUQT-48" target="5aAx5zSFEC0gb9VVzUQT-51" edge="1">
                    <mxGeometry width="50" height="50" relative="1" as="geometry">
                        <mxPoint x="260" y="470" as="sourcePoint"/>
                        <mxPoint x="310" y="420" as="targetPoint"/>
                        <Array as="points">
                            <mxPoint x="330" y="450"/>
                        </Array>
                    </mxGeometry>
                </mxCell>
                <mxCell id="5aAx5zSFEC0gb9VVzUQT-54" value="Failed" style="text;html=1;strokeColor=none;fillColor=none;align=center;verticalAlign=middle;whiteSpace=wrap;rounded=0;fontSize=12;" parent="5aAx5zSFEC0gb9VVzUQT-2" vertex="1">
                    <mxGeometry x="280" y="420" width="60" height="30" as="geometry"/>
                </mxCell>
                <mxCell id="5aAx5zSFEC0gb9VVzUQT-57" value="Input Student biometric data" style="ellipse;whiteSpace=wrap;html=1;fontSize=12;" parent="5aAx5zSFEC0gb9VVzUQT-2" vertex="1">
                    <mxGeometry x="21.25" y="490" width="118.75" height="60" as="geometry"/>
                </mxCell>
                <mxCell id="5aAx5zSFEC0gb9VVzUQT-56" value="" style="endArrow=classic;html=1;fontSize=12;exitX=0.262;exitY=1.047;exitDx=0;exitDy=0;exitPerimeter=0;" parent="5aAx5zSFEC0gb9VVzUQT-2" source="5aAx5zSFEC0gb9VVzUQT-51" target="5aAx5zSFEC0gb9VVzUQT-57" edge="1">
                    <mxGeometry width="50" height="50" relative="1" as="geometry">
                        <mxPoint x="230" y="580" as="sourcePoint"/>
                        <mxPoint x="280" y="530" as="targetPoint"/>
                        <Array as="points">
                            <mxPoint x="240" y="530"/>
                        </Array>
                    </mxGeometry>
                </mxCell>
                <mxCell id="5aAx5zSFEC0gb9VVzUQT-58" value="Verify student biometric data" style="ellipse;whiteSpace=wrap;html=1;fontSize=12;" parent="5aAx5zSFEC0gb9VVzUQT-2" vertex="1">
                    <mxGeometry x="190" y="570" width="140" height="60" as="geometry"/>
                </mxCell>
                <mxCell id="5aAx5zSFEC0gb9VVzUQT-59" value="" style="endArrow=classic;html=1;fontSize=12;entryX=0.5;entryY=0;entryDx=0;entryDy=0;" parent="5aAx5zSFEC0gb9VVzUQT-2" target="5aAx5zSFEC0gb9VVzUQT-58" edge="1">
                    <mxGeometry width="50" height="50" relative="1" as="geometry">
                        <mxPoint x="90" y="550" as="sourcePoint"/>
                        <mxPoint x="170" y="540" as="targetPoint"/>
                        <Array as="points">
                            <mxPoint x="260" y="550"/>
                        </Array>
                    </mxGeometry>
                </mxCell>
                <mxCell id="5aAx5zSFEC0gb9VVzUQT-60" value="online or physical class?&amp;nbsp;" style="shape=hexagon;perimeter=hexagonPerimeter2;whiteSpace=wrap;html=1;fixedSize=1;fontSize=12;" parent="5aAx5zSFEC0gb9VVzUQT-2" vertex="1">
                    <mxGeometry x="175" y="660" width="165" height="40" as="geometry"/>
                </mxCell>
                <mxCell id="5aAx5zSFEC0gb9VVzUQT-61" value="" style="endArrow=classic;html=1;fontSize=12;exitX=0.429;exitY=1;exitDx=0;exitDy=0;exitPerimeter=0;entryX=0.438;entryY=-0.033;entryDx=0;entryDy=0;entryPerimeter=0;" parent="5aAx5zSFEC0gb9VVzUQT-2" source="5aAx5zSFEC0gb9VVzUQT-58" target="5aAx5zSFEC0gb9VVzUQT-60" edge="1">
                    <mxGeometry width="50" height="50" relative="1" as="geometry">
                        <mxPoint x="235" y="680" as="sourcePoint"/>
                        <mxPoint x="285" y="630" as="targetPoint"/>
                    </mxGeometry>
                </mxCell>
                <mxCell id="5aAx5zSFEC0gb9VVzUQT-62" value="Verify student location&amp;nbsp;" style="ellipse;whiteSpace=wrap;html=1;fontSize=12;" parent="5aAx5zSFEC0gb9VVzUQT-2" vertex="1">
                    <mxGeometry x="170" y="730" width="130" height="50" as="geometry"/>
                </mxCell>
                <mxCell id="5aAx5zSFEC0gb9VVzUQT-63" value="View attendance status" style="ellipse;whiteSpace=wrap;html=1;fontSize=12;" parent="5aAx5zSFEC0gb9VVzUQT-2" vertex="1">
                    <mxGeometry x="220" y="800" width="130" height="50" as="geometry"/>
                </mxCell>
                <mxCell id="5aAx5zSFEC0gb9VVzUQT-64" value="" style="endArrow=classic;html=1;fontSize=12;exitX=0;exitY=0.5;exitDx=0;exitDy=0;entryX=0.077;entryY=0.2;entryDx=0;entryDy=0;entryPerimeter=0;" parent="5aAx5zSFEC0gb9VVzUQT-2" source="5aAx5zSFEC0gb9VVzUQT-60" target="5aAx5zSFEC0gb9VVzUQT-62" edge="1">
                    <mxGeometry width="50" height="50" relative="1" as="geometry">
                        <mxPoint x="190" y="820" as="sourcePoint"/>
                        <mxPoint x="240" y="770" as="targetPoint"/>
                    </mxGeometry>
                </mxCell>
                <mxCell id="5aAx5zSFEC0gb9VVzUQT-65" value="" style="endArrow=classic;html=1;fontSize=12;exitX=1;exitY=0.75;exitDx=0;exitDy=0;entryX=1;entryY=0;entryDx=0;entryDy=0;" parent="5aAx5zSFEC0gb9VVzUQT-2" source="5aAx5zSFEC0gb9VVzUQT-60" target="5aAx5zSFEC0gb9VVzUQT-63" edge="1">
                    <mxGeometry width="50" height="50" relative="1" as="geometry">
                        <mxPoint x="190" y="820" as="sourcePoint"/>
                        <mxPoint x="240" y="770" as="targetPoint"/>
                    </mxGeometry>
                </mxCell>
                <mxCell id="5aAx5zSFEC0gb9VVzUQT-66" value="physical" style="text;html=1;strokeColor=none;fillColor=none;align=center;verticalAlign=middle;whiteSpace=wrap;rounded=0;fontSize=12;" parent="5aAx5zSFEC0gb9VVzUQT-2" vertex="1">
                    <mxGeometry x="175" y="710" width="60" height="30" as="geometry"/>
                </mxCell>
                <mxCell id="5aAx5zSFEC0gb9VVzUQT-67" value="online" style="text;html=1;strokeColor=none;fillColor=none;align=center;verticalAlign=middle;whiteSpace=wrap;rounded=0;fontSize=12;" parent="5aAx5zSFEC0gb9VVzUQT-2" vertex="1">
                    <mxGeometry x="280" y="780" width="60" height="30" as="geometry"/>
                </mxCell>
                <mxCell id="5aAx5zSFEC0gb9VVzUQT-69" value="Manage date, time and location" style="ellipse;whiteSpace=wrap;html=1;fontSize=12;" parent="5aAx5zSFEC0gb9VVzUQT-2" vertex="1">
                    <mxGeometry x="197.5" y="120" width="120" height="80" as="geometry"/>
                </mxCell>
                <mxCell id="5aAx5zSFEC0gb9VVzUQT-70" value="" style="endArrow=classic;html=1;fontSize=12;exitX=0.604;exitY=1.042;exitDx=0;exitDy=0;exitPerimeter=0;" parent="5aAx5zSFEC0gb9VVzUQT-2" source="5aAx5zSFEC0gb9VVzUQT-69" target="5aAx5zSFEC0gb9VVzUQT-27" edge="1">
                    <mxGeometry width="50" height="50" relative="1" as="geometry">
                        <mxPoint x="260" y="260" as="sourcePoint"/>
                        <mxPoint x="310" y="210" as="targetPoint"/>
                    </mxGeometry>
                </mxCell>
                <mxCell id="5aAx5zSFEC0gb9VVzUQT-71" value="View attendance status" style="ellipse;whiteSpace=wrap;html=1;fontSize=12;" parent="5aAx5zSFEC0gb9VVzUQT-2" vertex="1">
                    <mxGeometry x="22.5" y="860" width="105" height="60" as="geometry"/>
                </mxCell>
                <mxCell id="5aAx5zSFEC0gb9VVzUQT-72" value="" style="endArrow=classic;html=1;fontSize=12;exitX=0.441;exitY=1.093;exitDx=0;exitDy=0;exitPerimeter=0;" parent="5aAx5zSFEC0gb9VVzUQT-2" source="5aAx5zSFEC0gb9VVzUQT-63" target="5aAx5zSFEC0gb9VVzUQT-71" edge="1">
                    <mxGeometry width="50" height="50" relative="1" as="geometry">
                        <mxPoint x="170" y="910" as="sourcePoint"/>
                        <mxPoint x="220" y="860" as="targetPoint"/>
                        <Array as="points">
                            <mxPoint x="280" y="890"/>
                        </Array>
                    </mxGeometry>
                </mxCell>
                <mxCell id="5aAx5zSFEC0gb9VVzUQT-73" value="Generate list of attendance&amp;nbsp;" style="ellipse;whiteSpace=wrap;html=1;fontSize=12;" parent="5aAx5zSFEC0gb9VVzUQT-2" vertex="1">
                    <mxGeometry x="380" y="905" width="140" height="65" as="geometry"/>
                </mxCell>
                <mxCell id="5aAx5zSFEC0gb9VVzUQT-74" value="" style="endArrow=classic;html=1;fontSize=12;exitX=0.643;exitY=1.05;exitDx=0;exitDy=0;exitPerimeter=0;" parent="5aAx5zSFEC0gb9VVzUQT-2" source="5aAx5zSFEC0gb9VVzUQT-71" target="5aAx5zSFEC0gb9VVzUQT-73" edge="1">
                    <mxGeometry width="50" height="50" relative="1" as="geometry">
                        <mxPoint x="240" y="1035" as="sourcePoint"/>
                        <mxPoint x="290" y="985" as="targetPoint"/>
                        <Array as="points">
                            <mxPoint x="90" y="945"/>
                        </Array>
                    </mxGeometry>
                </mxCell>
                <mxCell id="5aAx5zSFEC0gb9VVzUQT-75" value="Create report and make analysis" style="ellipse;whiteSpace=wrap;html=1;fontSize=12;" parent="5aAx5zSFEC0gb9VVzUQT-2" vertex="1">
                    <mxGeometry x="380" y="985" width="140" height="60" as="geometry"/>
                </mxCell>
                <mxCell id="5aAx5zSFEC0gb9VVzUQT-76" value="" style="endArrow=classic;html=1;fontSize=12;entryX=0.5;entryY=0;entryDx=0;entryDy=0;" parent="5aAx5zSFEC0gb9VVzUQT-2" target="5aAx5zSFEC0gb9VVzUQT-75" edge="1">
                    <mxGeometry width="50" height="50" relative="1" as="geometry">
                        <mxPoint x="420" y="938" as="sourcePoint"/>
                        <mxPoint x="500" y="965" as="targetPoint"/>
                    </mxGeometry>
                </mxCell>
                <mxCell id="5aAx5zSFEC0gb9VVzUQT-78" value="" style="shape=sumEllipse;perimeter=ellipsePerimeter;whiteSpace=wrap;html=1;backgroundOutline=1;fontSize=12;" parent="5aAx5zSFEC0gb9VVzUQT-2" vertex="1">
                    <mxGeometry x="432.5" y="1115" width="35" height="35" as="geometry"/>
                </mxCell>
                <mxCell id="5aAx5zSFEC0gb9VVzUQT-79" value="" style="endArrow=classic;html=1;fontSize=12;exitX=0.5;exitY=1;exitDx=0;exitDy=0;entryX=0.5;entryY=0;entryDx=0;entryDy=0;" parent="5aAx5zSFEC0gb9VVzUQT-2" source="5aAx5zSFEC0gb9VVzUQT-75" target="5aAx5zSFEC0gb9VVzUQT-78" edge="1">
                    <mxGeometry width="50" height="50" relative="1" as="geometry">
                        <mxPoint x="432.5" y="1095" as="sourcePoint"/>
                        <mxPoint x="482.5" y="1045" as="targetPoint"/>
                    </mxGeometry>
                </mxCell>
                <mxCell id="_rP1sHgq6f1QHs6t4Aqy-1" value="1" style="rhombus;whiteSpace=wrap;html=1;" parent="5aAx5zSFEC0gb9VVzUQT-2" vertex="1">
                    <mxGeometry x="175" y="425" width="30" height="30" as="geometry"/>
                </mxCell>
                <mxCell id="_rP1sHgq6f1QHs6t4Aqy-2" value="" style="endArrow=classic;html=1;exitX=0;exitY=0.5;exitDx=0;exitDy=0;entryX=0.5;entryY=0;entryDx=0;entryDy=0;" parent="5aAx5zSFEC0gb9VVzUQT-2" source="5aAx5zSFEC0gb9VVzUQT-48" target="_rP1sHgq6f1QHs6t4Aqy-1" edge="1">
                    <mxGeometry width="50" height="50" relative="1" as="geometry">
                        <mxPoint x="210" y="525" as="sourcePoint"/>
                        <mxPoint x="260" y="475" as="targetPoint"/>
                    </mxGeometry>
                </mxCell>
                <mxCell id="_rP1sHgq6f1QHs6t4Aqy-3" value="success" style="text;html=1;strokeColor=none;fillColor=none;align=center;verticalAlign=middle;whiteSpace=wrap;rounded=0;" parent="5aAx5zSFEC0gb9VVzUQT-2" vertex="1">
                    <mxGeometry x="190" y="405" width="60" height="30" as="geometry"/>
                </mxCell>
                <mxCell id="_rP1sHgq6f1QHs6t4Aqy-4" value="1" style="rhombus;whiteSpace=wrap;html=1;" parent="5aAx5zSFEC0gb9VVzUQT-2" vertex="1">
                    <mxGeometry x="170" y="810" width="30" height="30" as="geometry"/>
                </mxCell>
                <mxCell id="_rP1sHgq6f1QHs6t4Aqy-5" style="edgeStyle=none;html=1;exitX=0;exitY=0;exitDx=0;exitDy=0;entryX=0;entryY=0.5;entryDx=0;entryDy=0;" parent="5aAx5zSFEC0gb9VVzUQT-2" source="_rP1sHgq6f1QHs6t4Aqy-4" target="_rP1sHgq6f1QHs6t4Aqy-4" edge="1">
                    <mxGeometry relative="1" as="geometry"/>
                </mxCell>
                <mxCell id="_rP1sHgq6f1QHs6t4Aqy-7" value="" style="endArrow=classic;html=1;exitX=1;exitY=0.5;exitDx=0;exitDy=0;entryX=0;entryY=0.5;entryDx=0;entryDy=0;" parent="5aAx5zSFEC0gb9VVzUQT-2" source="_rP1sHgq6f1QHs6t4Aqy-4" target="5aAx5zSFEC0gb9VVzUQT-63" edge="1">
                    <mxGeometry width="50" height="50" relative="1" as="geometry">
                        <mxPoint x="210" y="825" as="sourcePoint"/>
                        <mxPoint x="260" y="775" as="targetPoint"/>
                    </mxGeometry>
                </mxCell>
            </root>
        </mxGraphModel>
    </diagram>
</mxfile>